<?xml version="1.0" encoding="UTF-8" standalone="no"?>
<!DOCTYPE svg PUBLIC "-//W3C//DTD SVG 1.1//EN" "http://www.w3.org/Graphics/SVG/1.1/DTD/svg11.dtd">
<svg xmlns="http://www.w3.org/2000/svg" version="1.1" viewBox="0 0 875 875">
<g stroke-width="2.1" fill="none" stroke-linecap="butt">
<path stroke="#b396c8" vector-effect="non-scaling-stroke" d="
  M 542.59 253.94
  C 542.59 195.89 495.54 148.84 437.49 148.84
  C 379.44 148.84 332.39 195.89 332.39 253.94
  C 332.39 311.99 379.44 359.04 437.49 359.04
  C 495.54 359.04 542.59 311.99 542.59 253.94"
/>
<path stroke="#b396c8" vector-effect="non-scaling-stroke" d="
  M 568.31 438.44
  Q 520.96 393.68 455.01 391.36
  Q 448.23 391.12 435.00 391.19
  Q 424.37 391.25 413.75 391.82
  Q 399.70 392.56 386.01 395.81
  Q 343.04 406.03 310.49 434.86
  Q 303.08 441.42 296.38 449.00
  Q 259.82 490.32 253.62 545.54
  Q 252.76 553.15 252.69 565.50
  Q 252.29 630.59 252.56 695.69
  C 252.56 695.97 252.78 696.19 253.06 696.19
  L 621.94 696.19
  C 622.22 696.19 622.44 695.97 622.44 695.69
  Q 622.62 585.57 622.50 565.50
  Q 622.04 489.22 568.31 438.44"
/>
</g>
<path fill="#662d91" d="
  M 433.31 0.00
  Q 437.81 0.00 442.31 0.00
  Q 468.90 0.54 487.25 2.75
  Q 609.28 17.45 705.59 91.86
  Q 713.52 97.99 721.10 104.47
  Q 779.65 154.49 817.19 220.06
  Q 873.00 317.56 875.00 431.81
  Q 875.00 438.06 875.00 444.31
  Q 874.12 483.22 868.00 516.00
  Q 843.82 645.54 752.68 740.78
  Q 745.71 748.06 738.51 754.88
  Q 669.10 820.55 579.44 851.44
  Q 513.38 874.19 441.44 875.00
  Q 437.31 875.00 433.19 875.00
  Q 290.14 872.46 176.67 788.59
  Q 168.55 782.59 160.87 776.31
  Q 103.16 729.15 64.81 666.69
  Q 2.88 565.79 0.00 445.69
  Q 0.00 438.81 0.00 431.94
  Q 1.25 352.27 28.81 281.06
  Q 74.95 161.88 178.22 85.19
  Q 186.29 79.20 194.58 73.69
  Q 302.34 2.10 433.31 0.00
  Z
  M 542.59 253.94
  C 542.59 195.89 495.54 148.84 437.49 148.84
  C 379.44 148.84 332.39 195.89 332.39 253.94
  C 332.39 311.99 379.44 359.04 437.49 359.04
  C 495.54 359.04 542.59 311.99 542.59 253.94
  Z
  M 568.31 438.44
  Q 520.96 393.68 455.01 391.36
  Q 448.23 391.12 435.00 391.19
  Q 424.37 391.25 413.75 391.82
  Q 399.70 392.56 386.01 395.81
  Q 343.04 406.03 310.49 434.86
  Q 303.08 441.42 296.38 449.00
  Q 259.82 490.32 253.62 545.54
  Q 252.76 553.15 252.69 565.50
  Q 252.29 630.59 252.56 695.69
  C 252.56 695.97 252.78 696.19 253.06 696.19
  L 621.94 696.19
  C 622.22 696.19 622.44 695.97 622.44 695.69
  Q 622.62 585.57 622.50 565.50
  Q 622.04 489.22 568.31 438.44
  Z"
/>
<circle fill="#ffffff" cx="437.49" cy="253.94" r="105.10"/>
<path fill="#ffffff" d="
  M 568.31 438.44
  Q 622.04 489.22 622.50 565.50
  Q 622.62 585.57 622.44 695.69
  C 622.44 695.97 622.22 696.19 621.94 696.19
  L 253.06 696.19
  C 252.78 696.19 252.56 695.97 252.56 695.69
  Q 252.29 630.59 252.69 565.50
  Q 252.76 553.15 253.62 545.54
  Q 259.82 490.32 296.38 449.00
  Q 303.08 441.42 310.49 434.86
  Q 343.04 406.03 386.01 395.81
  Q 399.70 392.56 413.75 391.82
  Q 424.37 391.25 435.00 391.19
  Q 448.23 391.12 455.01 391.36
  Q 520.96 393.68 568.31 438.44
  Z"
/>
</svg>
