<?xml version="1.0" encoding="UTF-8" standalone="no"?>
<!DOCTYPE svg PUBLIC "-//W3C//DTD SVG 1.1//EN" "http://www.w3.org/Graphics/SVG/1.1/DTD/svg11.dtd">
<svg xmlns="http://www.w3.org/2000/svg" version="1.1" viewBox="0 0 875 875">
<g stroke-width="2.1" fill="none" stroke-linecap="butt">
<path stroke="#b396c8" vector-effect="non-scaling-stroke" d="
  M 412.15 238.70
  Q 416.68 214.06 417.50 186.25
  Q 418.17 163.44 417.58 146.94
  C 417.57 146.66 417.35 146.43 417.07 146.42
  Q 405.91 146.11 394.75 146.23
  Q 390.97 146.28 388.94 148.70
  Q 387.48 150.43 387.32 154.18
  Q 387.18 157.38 387.26 160.87
  C 387.27 161.36 387.01 161.82 386.58 162.05
  Q 370.53 170.79 358.55 184.55
  Q 333.03 213.85 332.26 253.00
  C 332.25 253.27 332.48 253.50 332.75 253.50
  L 542.44 253.44
  C 542.71 253.44 542.94 253.21 542.93 252.93
  Q 542.00 214.82 517.56 185.92
  Q 505.77 171.98 489.95 162.83
  Q 489.00 162.29 488.93 162.52
  C 488.89 162.64 489.13 162.88 489.49 163.08
  L 491.37 164.17
  C 491.61 164.30 491.75 164.63 491.73 165.01
  Q 490.06 199.25 488.75 233.51
  Q 488.73 233.97 488.63 234.17
  Q 488.26 234.86 488.25 233.81
  Q 487.85 194.44 487.99 155.08
  Q 488.00 151.01 486.78 149.17
  Q 484.84 146.25 480.75 146.25
  Q 469.88 146.25 458.29 146.25
  C 458.01 146.25 457.78 146.48 457.77 146.76
  Q 457.02 183.19 460.00 218.75
  Q 461.40 235.40 466.04 249.96
  Q 466.19 250.44 466.00 249.97
  Q 462.64 241.67 461.12 232.82
  Q 458.35 216.76 457.20 200.50
  Q 455.48 176.27 455.07 151.98
  Q 454.96 145.43 453.60 142.23
  Q 451.23 136.66 445.94 133.81
  Q 437.87 129.47 429.06 134.06
  Q 423.70 136.86 421.52 142.49
  Q 420.29 145.68 420.24 153.17
  Q 420.06 184.37 416.75 214.00
  Q 415.42 225.87 412.19 238.70
  Q 412.06 239.19 412.15 238.70"
/>
<path stroke="#b396c8" vector-effect="non-scaling-stroke" d="
  M 325.47 268.88
  Q 328.41 270.15 332.44 269.94
  C 333.11 269.91 333.70 270.38 333.80 271.04
  Q 337.74 295.58 352.93 316.10
  Q 369.42 338.36 394.05 349.67
  Q 402.96 353.76 412.96 356.10
  Q 450.42 364.85 484.54 347.88
  Q 493.55 343.40 501.46 337.27
  Q 533.57 312.39 541.29 270.79
  C 541.39 270.26 541.87 269.90 542.41 269.95
  Q 546.93 270.36 550.40 268.60
  Q 553.80 266.88 554.43 263.53
  Q 555.18 259.46 550.81 256.76
  Q 547.97 255.01 543.25 255.00
  Q 439.28 254.82 335.31 255.00
  Q 335.27 255.00 332.19 254.85
  Q 329.24 254.72 326.55 255.67
  Q 322.77 257.00 321.28 259.87
  Q 319.83 262.65 321.55 265.51
  Q 322.92 267.79 325.47 268.88"
/>
<path stroke="#b396c8" vector-effect="non-scaling-stroke" d="
  M 568.31 438.44
  Q 520.96 393.68 455.01 391.36
  Q 448.23 391.12 435.00 391.19
  Q 424.37 391.25 413.75 391.82
  Q 399.70 392.56 386.01 395.81
  Q 343.04 406.03 310.49 434.86
  Q 303.08 441.42 296.38 449.00
  Q 259.82 490.32 253.62 545.54
  Q 252.76 553.15 252.69 565.50
  Q 252.29 630.59 252.56 695.69
  C 252.56 695.97 252.78 696.19 253.06 696.19
  L 621.94 696.19
  C 622.22 696.19 622.44 695.97 622.44 695.69
  Q 622.62 585.57 622.50 565.50
  Q 622.04 489.22 568.31 438.44"
/>
<path stroke="#b396c8" vector-effect="non-scaling-stroke" d="
  M 386.92 162.44
  L 383.88 164.17
  C 383.64 164.30 383.50 164.63 383.52 165.00
  L 387.03 229.43
  Q 387.07 230.09 387.07 229.43
  L 387.25 162.67
  C 387.25 162.49 387.07 162.36 386.92 162.44"
/>
<path stroke="#b396c8" vector-effect="non-scaling-stroke" d="
  M 410.81 242.90
  Q 409.59 247.93 411.20 242.89
  Q 411.25 242.74 411.22 242.59
  Q 411.06 241.85 410.81 242.90"
/>
</g>
<path fill="#662d91" d="
  M 433.31 0.00
  Q 437.81 0.00 442.31 0.00
  Q 468.90 0.54 487.25 2.75
  Q 609.28 17.45 705.59 91.86
  Q 713.52 97.99 721.10 104.47
  Q 779.65 154.49 817.19 220.06
  Q 873.00 317.56 875.00 431.81
  Q 875.00 438.06 875.00 444.31
  Q 874.12 483.22 868.00 516.00
  Q 843.82 645.54 752.68 740.78
  Q 745.71 748.06 738.51 754.88
  Q 669.10 820.55 579.44 851.44
  Q 513.38 874.19 441.44 875.00
  Q 437.31 875.00 433.19 875.00
  Q 290.14 872.46 176.67 788.59
  Q 168.55 782.59 160.87 776.31
  Q 103.16 729.15 64.81 666.69
  Q 2.88 565.79 0.00 445.69
  Q 0.00 438.81 0.00 431.94
  Q 1.25 352.27 28.81 281.06
  Q 74.95 161.88 178.22 85.19
  Q 186.29 79.20 194.58 73.69
  Q 302.34 2.10 433.31 0.00
  Z
  M 412.15 238.70
  Q 416.68 214.06 417.50 186.25
  Q 418.17 163.44 417.58 146.94
  C 417.57 146.66 417.35 146.43 417.07 146.42
  Q 405.91 146.11 394.75 146.23
  Q 390.97 146.28 388.94 148.70
  Q 387.48 150.43 387.32 154.18
  Q 387.18 157.38 387.26 160.87
  C 387.27 161.36 387.01 161.82 386.58 162.05
  Q 370.53 170.79 358.55 184.55
  Q 333.03 213.85 332.26 253.00
  C 332.25 253.27 332.48 253.50 332.75 253.50
  L 542.44 253.44
  C 542.71 253.44 542.94 253.21 542.93 252.93
  Q 542.00 214.82 517.56 185.92
  Q 505.77 171.98 489.95 162.83
  Q 489.00 162.29 488.93 162.52
  C 488.89 162.64 489.13 162.88 489.49 163.08
  L 491.37 164.17
  C 491.61 164.30 491.75 164.63 491.73 165.01
  Q 490.06 199.25 488.75 233.51
  Q 488.73 233.97 488.63 234.17
  Q 488.26 234.86 488.25 233.81
  Q 487.85 194.44 487.99 155.08
  Q 488.00 151.01 486.78 149.17
  Q 484.84 146.25 480.75 146.25
  Q 469.88 146.25 458.29 146.25
  C 458.01 146.25 457.78 146.48 457.77 146.76
  Q 457.02 183.19 460.00 218.75
  Q 461.40 235.40 466.04 249.96
  Q 466.19 250.44 466.00 249.97
  Q 462.64 241.67 461.12 232.82
  Q 458.35 216.76 457.20 200.50
  Q 455.48 176.27 455.07 151.98
  Q 454.96 145.43 453.60 142.23
  Q 451.23 136.66 445.94 133.81
  Q 437.87 129.47 429.06 134.06
  Q 423.70 136.86 421.52 142.49
  Q 420.29 145.68 420.24 153.17
  Q 420.06 184.37 416.75 214.00
  Q 415.42 225.87 412.19 238.70
  Q 412.06 239.19 412.15 238.70
  Z
  M 325.47 268.88
  Q 328.41 270.15 332.44 269.94
  C 333.11 269.91 333.70 270.38 333.80 271.04
  Q 337.74 295.58 352.93 316.10
  Q 369.42 338.36 394.05 349.67
  Q 402.96 353.76 412.96 356.10
  Q 450.42 364.85 484.54 347.88
  Q 493.55 343.40 501.46 337.27
  Q 533.57 312.39 541.29 270.79
  C 541.39 270.26 541.87 269.90 542.41 269.95
  Q 546.93 270.36 550.40 268.60
  Q 553.80 266.88 554.43 263.53
  Q 555.18 259.46 550.81 256.76
  Q 547.97 255.01 543.25 255.00
  Q 439.28 254.82 335.31 255.00
  Q 335.27 255.00 332.19 254.85
  Q 329.24 254.72 326.55 255.67
  Q 322.77 257.00 321.28 259.87
  Q 319.83 262.65 321.55 265.51
  Q 322.92 267.79 325.47 268.88
  Z
  M 568.31 438.44
  Q 520.96 393.68 455.01 391.36
  Q 448.23 391.12 435.00 391.19
  Q 424.37 391.25 413.75 391.82
  Q 399.70 392.56 386.01 395.81
  Q 343.04 406.03 310.49 434.86
  Q 303.08 441.42 296.38 449.00
  Q 259.82 490.32 253.62 545.54
  Q 252.76 553.15 252.69 565.50
  Q 252.29 630.59 252.56 695.69
  C 252.56 695.97 252.78 696.19 253.06 696.19
  L 621.94 696.19
  C 622.22 696.19 622.44 695.97 622.44 695.69
  Q 622.62 585.57 622.50 565.50
  Q 622.04 489.22 568.31 438.44
  Z"
/>
<path fill="#ffffff" d="
  M 412.19 238.70
  Q 415.42 225.87 416.75 214.00
  Q 420.06 184.37 420.24 153.17
  Q 420.29 145.68 421.52 142.49
  Q 423.70 136.86 429.06 134.06
  Q 437.87 129.47 445.94 133.81
  Q 451.23 136.66 453.60 142.23
  Q 454.96 145.43 455.07 151.98
  Q 455.48 176.27 457.20 200.50
  Q 458.35 216.76 461.12 232.82
  Q 462.64 241.67 466.00 249.97
  Q 466.19 250.44 466.04 249.96
  Q 461.40 235.40 460.00 218.75
  Q 457.02 183.19 457.77 146.76
  C 457.78 146.48 458.01 146.25 458.29 146.25
  Q 469.88 146.25 480.75 146.25
  Q 484.84 146.25 486.78 149.17
  Q 488.00 151.01 487.99 155.08
  Q 487.85 194.44 488.25 233.81
  Q 488.26 234.86 488.63 234.17
  Q 488.73 233.97 488.75 233.51
  Q 490.06 199.25 491.73 165.01
  C 491.75 164.63 491.61 164.30 491.37 164.17
  L 489.49 163.08
  C 489.13 162.88 488.89 162.64 488.93 162.52
  Q 489.00 162.29 489.95 162.83
  Q 505.77 171.98 517.56 185.92
  Q 542.00 214.82 542.93 252.93
  C 542.94 253.21 542.71 253.44 542.44 253.44
  L 332.75 253.50
  C 332.48 253.50 332.25 253.27 332.26 253.00
  Q 333.03 213.85 358.55 184.55
  Q 370.53 170.79 386.58 162.05
  C 387.01 161.82 387.27 161.36 387.26 160.87
  Q 387.18 157.38 387.32 154.18
  Q 387.48 150.43 388.94 148.70
  Q 390.97 146.28 394.75 146.23
  Q 405.91 146.11 417.07 146.42
  C 417.35 146.43 417.57 146.66 417.58 146.94
  Q 418.17 163.44 417.50 186.25
  Q 416.68 214.06 412.15 238.70
  Q 412.06 239.19 412.19 238.70
  Z
  M 386.92 162.44
  L 383.88 164.17
  C 383.64 164.30 383.50 164.63 383.52 165.00
  L 387.03 229.43
  Q 387.07 230.09 387.07 229.43
  L 387.25 162.67
  C 387.25 162.49 387.07 162.36 386.92 162.44
  Z
  M 410.81 242.90
  Q 409.59 247.93 411.20 242.89
  Q 411.25 242.74 411.22 242.59
  Q 411.06 241.85 410.81 242.90
  Z"
/>
<path fill="#662d91" d="
  M 386.92 162.44
  C 387.07 162.36 387.25 162.49 387.25 162.67
  L 387.07 229.43
  Q 387.07 230.09 387.03 229.43
  L 383.52 165.00
  C 383.50 164.63 383.64 164.30 383.88 164.17
  L 386.92 162.44
  Z"
/>
<path fill="#662d91" d="
  M 410.81 242.90
  Q 411.06 241.85 411.22 242.59
  Q 411.25 242.74 411.20 242.89
  Q 409.59 247.93 410.81 242.90
  Z"
/>
<path fill="#ffffff" d="
  M 321.55 265.51
  Q 319.83 262.65 321.28 259.87
  Q 322.77 257.00 326.55 255.67
  Q 329.24 254.72 332.19 254.85
  Q 335.27 255.00 335.31 255.00
  Q 439.28 254.82 543.25 255.00
  Q 547.97 255.01 550.81 256.76
  Q 555.18 259.46 554.43 263.53
  Q 553.80 266.88 550.40 268.60
  Q 546.93 270.36 542.41 269.95
  C 541.87 269.90 541.39 270.26 541.29 270.79
  Q 533.57 312.39 501.46 337.27
  Q 493.55 343.40 484.54 347.88
  Q 450.42 364.85 412.96 356.10
  Q 402.96 353.76 394.05 349.67
  Q 369.42 338.36 352.93 316.10
  Q 337.74 295.58 333.80 271.04
  C 333.70 270.38 333.11 269.91 332.44 269.94
  Q 328.41 270.15 325.47 268.88
  Q 322.92 267.79 321.55 265.51
  Z"
/>
<path fill="#ffffff" d="
  M 568.31 438.44
  Q 622.04 489.22 622.50 565.50
  Q 622.62 585.57 622.44 695.69
  C 622.44 695.97 622.22 696.19 621.94 696.19
  L 253.06 696.19
  C 252.78 696.19 252.56 695.97 252.56 695.69
  Q 252.29 630.59 252.69 565.50
  Q 252.76 553.15 253.62 545.54
  Q 259.82 490.32 296.38 449.00
  Q 303.08 441.42 310.49 434.86
  Q 343.04 406.03 386.01 395.81
  Q 399.70 392.56 413.75 391.82
  Q 424.37 391.25 435.00 391.19
  Q 448.23 391.12 455.01 391.36
  Q 520.96 393.68 568.31 438.44
  Z"
/>
</svg>
